<svg width="310" height="277" viewBox="0 0 310 277" fill="none" xmlns="http://www.w3.org/2000/svg">
<path d="M332.903 89.9028C281.487 40.251 199.556 41.6811 149.904 93.0971C100.252 144.513 101.682 226.445 153.098 276.097C204.514 325.748 286.446 324.318 336.098 272.902C385.749 221.486 384.319 139.555 332.903 89.9028Z" fill="white"/>
<path fill-rule="evenodd" clip-rule="evenodd" d="M150.698 92.2745C154.772 88.0559 159.055 84.1657 163.509 80.6019C177.701 107.081 173.742 141.032 151.448 164.118C140.711 175.236 127.309 182.191 113.29 184.937C113.165 151.722 125.612 118.253 150.698 92.2745Z" fill="#E6E7E8"/>
<path fill-rule="evenodd" clip-rule="evenodd" d="M49.9071 65.9312C77.4699 37.3891 122.576 36.2373 150.656 63.3544C156.007 68.5218 160.355 74.3422 163.693 80.5808C159.175 84.1966 154.892 88.0982 150.873 92.2616C125.768 118.258 113.305 151.744 113.417 184.969C91.4544 189.278 67.9797 183.258 50.845 166.712C22.7641 139.594 22.3443 94.4733 49.9071 65.9312" fill="#F05136"/>
</svg>
